<?xml version="1.0" encoding="utf-8"?>
<!-- Generator: Adobe Illustrator 27.5.0, SVG Export Plug-In . SVG Version: 6.00 Build 0)  -->
<svg version="1.1" xmlns="http://www.w3.org/2000/svg" xmlns:xlink="http://www.w3.org/1999/xlink" x="0px" y="0px"
	 viewBox="0 0 500 500" style="enable-background:new 0 0 500 500;" xml:space="preserve">
<g id="BACKGROUND">
	<rect style="fill:#F5E9D8;" width="500" height="500"/>
</g>
<g id="OBJECTS">
	<g>
		<circle style="fill:#FFD2B3;" cx="252.903" cy="179.116" r="155.799"/>
		<ellipse style="fill:#F9D7C0;" cx="253.249" cy="438.714" rx="199.566" ry="37.969"/>
		<g>
			<path style="fill:#FFE1CC;" d="M461.14,138.172H304.501l-0.501-0.098c2.602-12.824,5.558-26.021,13.462-36.41
				c4.213-5.538,10.674-10.359,17.547-9.319c5.077,0.776,9.643,4.645,14.729,3.957c3.938-0.54,6.962-3.682,9.338-6.864
				c3.967-5.283,7.198-11.282,12.353-15.416c5.155-4.134,13.168-5.803,18.215-1.532c2.916,2.465,4.203,6.314,5.361,9.967
				c0.962,3.024,1.915,6.049,2.877,9.073c0.854,2.71,1.856,5.617,4.183,7.237c3.074,2.16,7.286,1.296,10.841,0.088
				c3.565-1.208,7.394-2.7,10.958-1.532c3.535,1.159,5.803,4.674,6.854,8.238c1.06,3.574,1.168,7.345,1.993,10.968
				c0.491,2.18,1.306,4.409,3.005,5.872c4.988,4.311,13.099-0.736,19.207,1.758c3.496,1.434,5.607,5.155,6.157,8.887
				C461.336,134.745,461.317,136.454,461.14,138.172z"/>
			<path style="fill:#FFE1CC;" d="M214.573,165.404H36.411l-0.57-0.112c2.96-14.586,6.321-29.597,15.312-41.413
				c4.791-6.299,12.14-11.783,19.958-10.599c5.774,0.882,10.968,5.283,16.753,4.501c4.479-0.614,7.919-4.188,10.621-7.807
				c4.512-6.009,8.187-12.833,14.05-17.535c5.864-4.702,14.977-6.601,20.718-1.742c3.317,2.803,4.78,7.181,6.098,11.336
				c1.095,3.44,2.178,6.88,3.272,10.32c0.972,3.083,2.111,6.388,4.758,8.231c3.496,2.457,8.287,1.474,12.33,0.101
				c4.054-1.374,8.41-3.071,12.464-1.742c4.021,1.318,6.601,5.316,7.796,9.37c1.206,4.065,1.329,8.354,2.267,12.475
				c0.558,2.479,1.485,5.015,3.418,6.679c5.674,4.903,14.899-0.838,21.846,1.999c3.976,1.631,6.377,5.864,7.003,10.108
				C214.797,161.506,214.774,163.449,214.573,165.404z"/>
		</g>
	</g>
	<g>
		<g>
			<path style="fill:#BCC4A7;" d="M359.504,338.882c-4.136,4.042-8.308,8.149-11.392,13.038c-2.259,3.569-3.891,7.647-4.285,11.828
				c-5.79-12.177-10.144-25.102-11.908-38.456c-1.859-14.221-0.679-28.973,4.624-42.304c2.921-7.293,7.027-14.125,9.409-21.622
				c1.925-6.02,2.699-12.338,3.689-18.571c2.177-13.565,5.552-27.024,11.411-39.445c5.841-12.398,14.268-23.787,25.353-31.881
				c-2.762,7.446-2.472,15.737-0.81,23.494c1.664,7.777,4.672,15.19,7.292,22.698c8.085,23.193,12.584,49.069,4.112,72.153
				C389.847,309.305,374.378,324.4,359.504,338.882z"/>
			<path style="fill:#A0A984;" d="M471.566,236.552c-8.442,6.83-13.124,17.319-15.742,27.859
				c-2.618,10.539-3.474,21.448-5.924,32.038c-4.498,19.518-14.869,38.13-31.047,49.961c-10.153,7.435-22.102,11.899-33.531,17.185
				c-10.825,4.984-21.599,11.026-29.067,20.24c-2.165-5.521-2.551-11.58-2.685-17.521c-0.319-12.419,0.352-25.392,6.344-36.283
				c5.941-10.774,16.363-18.242,24.083-27.825c12.167-15.104,17.521-35.411,32.004-48.3
				C430.768,240.748,451.863,238.046,471.566,236.552z"/>
			<path style="fill:#A0A984;" d="M343.674,358.305c-5.717-31.317,1.493-38.483,17.646-63.318
				c3.916-6.352,6.954-13.273,7.585-20.601c1.078-11.099-2.413-22.616-1.119-33.912c1.276-11.318,6.985-21.758,7.127-33.158
				c0.428-7.357-0.153-15.753,4.815-21.825c-4.526,6.389-3.591,14.442-3.676,21.859c0.136,11.436-5.067,22.124-6.268,33.336
				c-1.152,11.363,2.446,22.34,1.432,33.914c-0.743,7.803-4.052,15.065-8.095,21.485
				C346.518,321.275,339.811,326.27,343.674,358.305L343.674,358.305z"/>
			<path style="fill:#BCC4A7;" d="M362.126,364.187c0.72-6.598,3.738-12.961,8.374-17.857c6.976-7.222,17.184-10.256,22.015-19.261
				c4.85-8.742,5.453-18.814,9.743-28.021c4.028-9.688,13.959-14.46,21.851-20.387c2.562-1.991,4.825-4.275,6.588-6.943
				c3.482-5.509,5.458-12.249,10.02-17.162c4.465-5.027,10.339-8.794,16.768-10.462c-6.26,2.168-11.85,6.076-15.896,11.194
				c-4.347,5.134-5.9,11.652-9.359,17.398c-7.001,11.458-22.607,14.556-27.871,27.351c-4.165,8.812-4.997,19.408-10.088,28.052
				c-4.977,9.13-15.918,12.346-22.97,19.04C366.557,351.6,363.361,357.684,362.126,364.187L362.126,364.187z"/>
			<path style="fill:#BCC4A7;" d="M463.414,355.267c-1.268,2.151-3.507,3.564-5.856,4.42c-4.395,1.585-9.158,1.426-13.848,0.922
				c-0.774,0.132-1.551,0.239-2.332,0.32c-5.806,0.592-11.557-0.152-17.203-1.438c-0.026,0.003-0.048-0.005-0.07-0.012
				c-2.839-0.649-5.643-1.433-8.424-2.246c-8.617-2.536-17.274-5.444-26.331-5.696c-1.508,0.846-3.051,1.618-4.655,2.282
				c-7.174,2.992-14.863,4.445-22.358,6.362c-7.414,1.896-14.89,4.313-20.952,9.141c-0.582,0.459-1.378-0.39-0.796-0.849
				c0.735-0.578,1.473-1.13,2.251-1.655c6.313-4.32,13.805-6.435,21.152-8.244c7.498-1.854,15.177-3.385,22.203-6.688
				c0.682-0.325,1.339-0.684,2.008-1.039c0.006-0.121,0.06-0.238,0.168-0.335c2.408-2.204,4.379-4.808,6.037-7.61
				c4.053-6.846,6.422-14.783,10.338-21.727c0.004-0.011,0.004-0.011,0.008-0.022c0.256-1.105,0.501-2.214,0.772-3.326
				c0.696-2.835,1.485-5.686,2.824-8.281c1.342-2.606,3.276-4.965,5.838-6.387c0.72-0.398,1.513-0.721,2.333-0.739
				c0.82-0.018,1.695,0.33,2.138,1.029c0.353,0.569,0.395,1.286,0.342,1.958c-0.287,3.941-3.025,7.285-6.028,9.844
				c-2.088,1.787-4.385,3.364-6.432,5.177c-0.136,0.211-0.258,0.414-0.383,0.628c-5.236,8.966-7.689,19.782-14.526,27.737
				c1.753-1.191,3.432-2.519,5.028-3.962c3.488-3.164,6.634-6.684,10.06-9.919c3.442-3.242,7.208-5.975,11.384-8.193
				c3.518-1.859,7.189-3.418,10.842-4.995c-0.002-0.099,0.007-0.195,0.068-0.296c1.052-1.994,1.593-4.181,2.163-6.346
				c0.561-2.106,1.182-4.203,1.907-6.251c0.632-1.748,1.34-3.469,2.162-5.126c0.172-0.728,0.347-1.467,0.523-2.206
				c0.599-2.561,1.218-5.176,2.641-7.384c1.412-2.211,3.812-3.974,6.438-3.906c1.161,0.029,2.48,0.583,2.76,1.706
				c0.208,0.838-0.205,1.69-0.652,2.431c-3.086,5.02-8.13,8.471-12.012,12.888c-0.335,0.806-0.641,1.634-0.932,2.455
				c-0.719,2.063-1.313,4.157-1.864,6.267c-0.459,1.748-0.962,3.48-1.706,5.127c0.233-0.102,0.452-0.197,0.671-0.292
				c5.832-2.543,11.828-5.447,16.612-9.693l0.103-0.185c2.29-3.922,4.22-8.082,7.065-11.622c0.786-0.966,1.645-1.895,2.723-2.536
				c0.673-0.403,1.461-0.678,2.249-0.571c1.407,0.203,2.379,1.669,2.44,3.096c0.065,1.416-0.578,2.778-1.317,3.995
				c-2.98,4.86-8.018,8.4-13.59,9.617c-5.33,4.397-11.874,7.28-18.182,9.986c-4.375,1.876-8.772,3.744-12.881,6.158
				c-4.162,2.457-7.748,5.586-11.153,9.002c-3.322,3.322-6.515,6.8-10.197,9.747c-1.209,0.977-2.504,1.849-3.82,2.677
				c4.221,0.263,8.387,1.062,12.472,2.091c6.853,1.739,13.562,4.129,20.451,5.732c2.051-1.615,4.006-3.338,5.899-5.132
				c3.902-3.671,7.68-7.62,11.809-11.062c2.261-3.007,4.91-5.717,7.857-8.05c2.122-1.676,4.576-3.21,7.277-3.214
				c1.319-0.001,2.808,0.527,3.27,1.763c0.37,1.006-0.074,2.156-0.726,3.021c-1.263,1.685-3.215,2.706-5.159,3.533
				c-2.341,1.007-4.771,1.81-7.251,2.41c-1.429,0.344-2.915,0.643-4.259,1.202c-6.046,4.957-11.197,10.934-17.275,15.842
				c1.555,0.342,3.111,0.647,4.683,0.871c4.753,0.674,9.683,0.745,14.397-0.21c1.033-0.583,1.992-1.377,2.943-2.113
				c3.36-2.593,7.177-4.741,11.361-5.415c0.969-0.162,1.967-0.227,2.937-0.044c0.842,0.163,1.726,0.624,1.99,1.445
				C464.081,353.839,463.79,354.624,463.414,355.267z"/>
		</g>
		<g>
			<path style="fill:#BCC4A7;" d="M156.125,334.228c4.136,4.042,8.308,8.149,11.392,13.038c2.259,3.569,3.891,7.647,4.285,11.828
				c5.79-12.177,10.144-25.102,11.908-38.456c1.859-14.221,0.679-28.973-4.624-42.304c-2.921-7.293-7.027-14.125-9.409-21.622
				c-1.925-6.02-2.699-12.338-3.689-18.571c-2.177-13.565-5.552-27.024-11.411-39.445c-5.841-12.398-14.268-23.787-25.353-31.881
				c2.762,7.446,2.472,15.737,0.81,23.494c-1.664,7.777-4.672,15.19-7.292,22.698c-8.085,23.193-12.584,49.069-4.112,72.153
				C125.783,304.652,141.251,319.746,156.125,334.228z"/>
			<path style="fill:#A0A984;" d="M44.063,231.899c8.442,6.83,13.124,17.319,15.742,27.859c2.618,10.539,3.474,21.448,5.924,32.038
				c4.498,19.518,14.869,38.13,31.047,49.961c10.153,7.435,22.102,11.899,33.531,17.185c10.825,4.984,21.599,11.026,29.067,20.24
				c2.165-5.521,2.551-11.58,2.685-17.521c0.319-12.419-0.352-25.392-6.344-36.283c-5.941-10.774-16.363-18.242-24.083-27.825
				c-12.167-15.104-17.521-35.411-32.004-48.3C84.861,236.094,63.766,233.392,44.063,231.899z"/>
			<path style="fill:#A0A984;" d="M171.955,353.651c5.717-31.317-1.493-38.483-17.646-63.318
				c-3.916-6.352-6.954-13.273-7.585-20.601c-1.078-11.099,2.413-22.616,1.119-33.912c-1.275-11.318-6.985-21.758-7.127-33.158
				c-0.428-7.357,0.153-15.753-4.815-21.825c4.526,6.389,3.591,14.442,3.676,21.859c-0.136,11.436,5.067,22.124,6.268,33.337
				c1.152,11.363-2.446,22.34-1.432,33.914c0.743,7.803,4.052,15.065,8.095,21.485C169.111,316.621,175.818,321.616,171.955,353.651
				L171.955,353.651z"/>
			<path style="fill:#BCC4A7;" d="M153.503,359.533c-0.72-6.598-3.738-12.961-8.374-17.857
				c-6.976-7.222-17.184-10.256-22.015-19.261c-4.85-8.742-5.453-18.814-9.743-28.021c-4.028-9.688-13.959-14.46-21.851-20.387
				c-2.562-1.991-4.825-4.275-6.588-6.943c-3.482-5.509-5.458-12.249-10.02-17.162c-4.465-5.027-10.339-8.794-16.768-10.462
				c6.26,2.168,11.85,6.076,15.896,11.194c4.347,5.134,5.9,11.652,9.359,17.398c7.001,11.458,22.607,14.556,27.871,27.351
				c4.165,8.812,4.997,19.408,10.088,28.052c4.977,9.13,15.918,12.346,22.97,19.04C149.072,346.946,152.269,353.03,153.503,359.533
				L153.503,359.533z"/>
			<path style="fill:#BCC4A7;" d="M27.04,340.865c1.268,2.151,3.507,3.564,5.856,4.42c4.395,1.585,9.158,1.426,13.848,0.922
				c0.774,0.132,1.551,0.239,2.332,0.32c5.806,0.592,11.557-0.152,17.203-1.438c0.026,0.003,0.048-0.005,0.07-0.012
				c2.839-0.649,5.643-1.433,8.424-2.246c8.617-2.536,17.274-5.444,26.331-5.696c1.508,0.846,3.051,1.618,4.655,2.282
				c7.174,2.992,14.863,4.445,22.358,6.362c7.414,1.896,14.89,4.313,20.952,9.141c0.582,0.459,1.378-0.39,0.796-0.849
				c-0.735-0.578-1.473-1.13-2.251-1.655c-6.313-4.32-13.805-6.435-21.152-8.244c-7.498-1.854-15.177-3.385-22.203-6.688
				c-0.682-0.325-1.339-0.684-2.008-1.039c-0.006-0.121-0.06-0.238-0.168-0.335c-2.408-2.204-4.379-4.808-6.037-7.61
				c-4.053-6.846-6.422-14.783-10.338-21.727c-0.004-0.011-0.004-0.011-0.008-0.022c-0.256-1.105-0.501-2.214-0.772-3.326
				c-0.696-2.835-1.485-5.686-2.824-8.281c-1.342-2.606-3.276-4.965-5.838-6.387c-0.72-0.398-1.513-0.721-2.333-0.739
				c-0.82-0.018-1.695,0.33-2.138,1.029c-0.353,0.569-0.395,1.286-0.342,1.958c0.287,3.941,3.025,7.285,6.028,9.844
				c2.088,1.787,4.385,3.364,6.432,5.177c0.136,0.211,0.258,0.414,0.383,0.628c5.236,8.966,7.689,19.782,14.526,27.737
				c-1.753-1.191-3.432-2.519-5.028-3.962c-3.488-3.164-6.634-6.684-10.06-9.919c-3.442-3.242-7.208-5.975-11.384-8.193
				c-3.518-1.859-7.189-3.418-10.842-4.995c0.002-0.099-0.007-0.195-0.068-0.296c-1.052-1.994-1.593-4.181-2.163-6.346
				c-0.561-2.106-1.182-4.203-1.907-6.251c-0.632-1.748-1.34-3.469-2.162-5.126c-0.172-0.728-0.347-1.467-0.523-2.206
				c-0.599-2.561-1.218-5.176-2.641-7.384c-1.412-2.211-3.812-3.974-6.438-3.906c-1.161,0.029-2.48,0.583-2.76,1.706
				c-0.208,0.838,0.205,1.69,0.652,2.431c3.086,5.02,8.13,8.471,12.012,12.888c0.335,0.806,0.641,1.634,0.932,2.455
				c0.719,2.063,1.313,4.157,1.864,6.267c0.459,1.748,0.962,3.48,1.706,5.127c-0.233-0.102-0.452-0.197-0.671-0.292
				c-5.832-2.543-11.828-5.447-16.612-9.693l-0.103-0.185c-2.29-3.922-4.22-8.082-7.065-11.622
				c-0.786-0.966-1.645-1.894-2.723-2.536c-0.673-0.403-1.461-0.678-2.249-0.571c-1.407,0.203-2.379,1.669-2.44,3.096
				c-0.065,1.416,0.578,2.778,1.317,3.995c2.98,4.86,8.018,8.4,13.59,9.617c5.33,4.397,11.874,7.28,18.182,9.986
				c4.375,1.876,8.772,3.744,12.881,6.158c4.162,2.457,7.748,5.586,11.153,9.002c3.322,3.322,6.515,6.8,10.197,9.747
				c1.209,0.977,2.504,1.849,3.82,2.677c-4.221,0.263-8.387,1.062-12.472,2.091c-6.853,1.739-13.562,4.129-20.451,5.732
				c-2.051-1.615-4.006-3.338-5.899-5.132c-3.902-3.671-7.68-7.62-11.809-11.062c-2.261-3.007-4.91-5.717-7.857-8.05
				c-2.122-1.676-4.576-3.21-7.277-3.214c-1.319-0.001-2.808,0.527-3.27,1.763c-0.371,1.006,0.074,2.156,0.726,3.021
				c1.263,1.685,3.215,2.706,5.159,3.533c2.341,1.007,4.771,1.81,7.251,2.41c1.429,0.344,2.915,0.643,4.259,1.202
				c6.046,4.957,11.197,10.934,17.275,15.842c-1.555,0.342-3.111,0.647-4.683,0.871c-4.753,0.674-9.683,0.745-14.397-0.21
				c-1.033-0.583-1.992-1.377-2.943-2.113c-3.36-2.593-7.177-4.741-11.361-5.415c-0.969-0.162-1.967-0.227-2.937-0.044
				c-0.842,0.163-1.726,0.624-1.99,1.445C26.374,339.437,26.664,340.222,27.04,340.865z"/>
			<path style="fill:#A0A984;" d="M133.621,147.981c-1.209,2.185-1.289,4.831-0.832,7.29c0.867,4.591,3.425,8.612,6.241,12.396
				c0.279,0.734,0.582,1.458,0.909,2.171c2.439,5.302,6.002,9.878,9.978,14.087c0.01,0.024,0.028,0.039,0.046,0.054
				c2.001,2.116,4.101,4.132,6.214,6.115c6.562,6.133,13.465,12.113,18.283,19.786c0.037,1.729,0.156,3.45,0.399,5.169
				c1.068,7.699,3.722,15.06,5.88,22.49c2.134,7.349,3.85,15.016,2.772,22.69c-0.1,0.735,1.036,0.989,1.136,0.254
				c0.124-0.926,0.225-1.842,0.282-2.779c0.513-7.633-1.471-15.16-3.645-22.407c-2.212-7.4-4.795-14.792-5.519-22.522
				c-0.067-0.753-0.091-1.501-0.125-2.257c0.101-0.067,0.174-0.172,0.203-0.315c0.675-3.193,1.917-6.214,3.488-9.066
				c3.838-6.97,9.47-13.042,13.462-19.943c0.007-0.009,0.007-0.009,0.015-0.018c0.822-0.782,1.652-1.556,2.472-2.354
				c2.088-2.04,4.143-4.168,5.698-6.639c1.562-2.48,2.612-5.344,2.535-8.273c-0.023-0.823-0.147-1.669-0.549-2.384
				c-0.401-0.715-1.145-1.293-1.972-1.318c-0.669-0.015-1.308,0.314-1.86,0.7c-3.249,2.25-4.737,6.307-5.417,10.194
				c-0.478,2.706-0.67,5.486-1.191,8.171c-0.112,0.224-0.226,0.432-0.347,0.649c-5.063,9.065-13.133,16.673-16.511,26.604
				c0.135-2.115,0.426-4.235,0.858-6.344c0.953-4.612,2.387-9.109,3.432-13.705c1.044-4.612,1.484-9.244,1.273-13.968
				c-0.186-3.975-0.709-7.929-1.206-11.876c0.086-0.049,0.164-0.105,0.221-0.209c1.183-1.919,2.792-3.496,4.367-5.087
				c1.529-1.554,3.02-3.153,4.415-4.819c1.185-1.432,2.307-2.917,3.317-4.466c0.54-0.518,1.087-1.044,1.634-1.571
				c1.901-1.817,3.84-3.679,5.018-6.027c1.187-2.34,1.486-5.302,0.094-7.53c-0.615-0.985-1.762-1.84-2.872-1.511
				c-0.828,0.246-1.352,1.035-1.763,1.797c-2.756,5.208-3.166,11.306-4.998,16.894c-0.524,0.698-1.082,1.382-1.641,2.05
				c-1.411,1.667-2.913,3.243-4.451,4.789c-1.272,1.283-2.509,2.597-3.549,4.074c-0.031-0.253-0.06-0.49-0.089-0.726
				c-0.772-6.315-1.318-12.955-0.091-19.232l0.108-0.183c2.215-3.965,4.817-7.741,6.421-11.989c0.433-1.168,0.796-2.379,0.801-3.633
				c0.005-0.784-0.158-1.602-0.65-2.227c-0.89-1.109-2.646-1.201-3.906-0.529c-1.253,0.663-2.099,1.909-2.772,3.164
				c-2.673,5.036-3.161,11.174-1.379,16.591c-1.079,6.825-0.238,13.925,0.636,20.735c0.607,4.721,1.231,9.458,1.24,14.224
				c-0.002,4.833-0.875,9.512-2.087,14.18c-1.173,4.549-2.547,9.066-3.215,13.735c-0.227,1.538-0.32,3.096-0.364,4.651
				c-2.371-3.502-5.176-6.685-8.137-9.681c-4.979-5.02-10.446-9.584-15.327-14.703c0.349-2.587,0.84-5.146,1.424-7.688
				c1.18-5.226,2.661-10.486,3.528-15.791c1.441-3.476,2.429-7.134,2.942-10.857c0.365-2.68,0.44-5.573-0.929-7.901
				c-0.669-1.137-1.881-2.151-3.18-1.921c-1.055,0.192-1.819,1.159-2.234,2.16c-0.81,1.944-0.698,4.144-0.422,6.239
				c0.322,2.528,0.865,5.029,1.608,7.47c0.429,1.405,0.927,2.838,1.129,4.279c-1.198,7.726-3.729,15.199-4.869,22.928
				c-1.084-1.166-2.138-2.351-3.13-3.591c-2.995-3.752-5.561-7.962-7.134-12.507c-0.022-1.186,0.174-2.415,0.324-3.608
				c0.527-4.211,0.437-8.591-1.108-12.537c-0.353-0.917-0.803-1.809-1.454-2.552c-0.568-0.643-1.415-1.17-2.256-0.98
				C134.513,146.682,133.984,147.331,133.621,147.981z"/>
			<path style="fill:#A0A984;" d="M315.589,158.654c-1.959,1.548-3.056,3.958-3.585,6.402c-0.974,4.57-0.17,9.267,0.966,13.845
				c-0.026,0.785-0.026,1.57,0,2.354c0.201,5.833,1.719,11.43,3.759,16.849c0,0.026,0.011,0.047,0.022,0.067
				c1.028,2.725,2.185,5.396,3.368,8.041c3.682,8.193,7.738,16.376,9.216,25.314c-0.634,1.609-1.189,3.242-1.63,4.921
				c-1.991,7.514-2.387,15.329-3.269,23.015c-0.872,7.603-2.252,15.337-6.213,21.998c-0.376,0.639,0.573,1.312,0.949,0.674
				c0.473-0.806,0.919-1.612,1.334-2.454c3.423-6.841,4.502-14.551,5.297-22.075c0.819-7.68,1.294-15.496,3.613-22.905
				c0.23-0.72,0.496-1.42,0.757-2.13c0.119-0.022,0.227-0.091,0.309-0.212c1.856-2.685,4.17-4.991,6.72-7.014
				c6.233-4.945,13.774-8.369,20.123-13.191c0.01-0.005,0.01-0.005,0.021-0.011c1.06-0.404,2.125-0.797,3.19-1.216
				c2.714-1.075,5.432-2.243,7.821-3.921c2.399-1.684,4.475-3.919,5.535-6.651c0.296-0.768,0.509-1.597,0.415-2.411
				c-0.094-0.815-0.557-1.635-1.309-1.978c-0.612-0.273-1.328-0.216-1.986-0.073c-3.866,0.82-6.807,3.986-8.935,7.308
				c-1.487,2.311-2.738,4.801-4.257,7.076c-0.19,0.164-0.375,0.311-0.571,0.465c-8.173,6.405-18.556,10.302-25.509,18.156
				c0.942-1.899,2.03-3.742,3.243-5.519c2.662-3.885,5.722-7.479,8.462-11.313c2.745-3.85,4.941-7.952,6.572-12.39
				c1.364-3.738,2.41-7.587,3.477-11.42c0.099-0.012,0.192-0.034,0.284-0.108c1.833-1.313,3.926-2.145,5.993-3.004
				c2.01-0.842,4.004-1.741,5.935-2.738c1.646-0.863,3.255-1.799,4.785-2.837c0.698-0.269,1.406-0.543,2.115-0.818
				c2.456-0.941,4.963-1.91,6.957-3.619c1.999-1.699,3.42-4.316,2.996-6.908c-0.186-1.146-0.914-2.378-2.064-2.503
				c-0.859-0.093-1.647,0.432-2.32,0.976c-4.555,3.738-7.289,9.204-11.139,13.65c-0.753,0.441-1.532,0.857-2.306,1.256
				c-1.946,0.992-3.94,1.865-5.956,2.697c-1.669,0.692-3.317,1.426-4.848,2.386c0.07-0.245,0.134-0.475,0.199-0.704
				c1.728-6.123,3.791-12.458,7.349-17.773l0.17-0.127c3.575-2.801,7.434-5.278,10.555-8.577c0.851-0.91,1.654-1.887,2.143-3.042
				c0.308-0.721,0.473-1.539,0.261-2.305c-0.392-1.367-1.976-2.131-3.398-1.998c-1.412,0.128-2.674,0.95-3.779,1.847
				c-4.411,3.612-7.234,9.084-7.684,14.769c-3.633,5.878-5.601,12.752-7.426,19.369c-1.265,4.589-2.519,9.199-4.353,13.598
				c-1.869,4.457-4.483,8.435-7.405,12.271c-2.84,3.742-5.853,7.377-8.273,11.425c-0.804,1.33-1.492,2.732-2.133,4.148
				c-0.834-4.146-2.19-8.166-3.764-12.073c-2.653-6.554-5.931-12.876-8.454-19.484c1.322-2.252,2.764-4.422,4.284-6.541
				c3.107-4.364,6.507-8.643,9.357-13.201c2.673-2.649,4.998-5.641,6.909-8.877c1.372-2.33,2.559-4.97,2.197-7.646
				c-0.178-1.307-0.903-2.711-2.19-3.001c-1.047-0.23-2.126,0.366-2.895,1.129c-1.498,1.48-2.245,3.552-2.8,5.591
				c-0.68,2.456-1.146,4.972-1.403,7.511c-0.147,1.462-0.242,2.975-0.613,4.383c-4.09,6.663-9.313,12.577-13.351,19.265
				c-0.549-1.494-1.063-2.995-1.498-4.522c-1.313-4.618-2.052-9.492-1.746-14.292c0.438-1.102,1.094-2.16,1.694-3.202
				c2.113-3.68,3.723-7.754,3.823-11.991c0.029-0.982-0.042-1.979-0.355-2.916c-0.276-0.812-0.853-1.626-1.702-1.776
				C316.913,157.8,316.175,158.194,315.589,158.654z"/>
		</g>
	</g>
	<g>
		<g>
			<path style="fill:#E29590;" d="M464.605,256.079c-1.464,5.902-7.575,9.155-11.699,13.604c-3.416,3.66-5.611,8.388-9.376,11.688
				c-6.006,5.274-14.662,5.902-22.643,6.274c-8.086,0.383-16.311,0.744-24.177-1.173c-5.46-1.324-10.607-3.718-15.951-5.46
				c-16.3-5.309-34.563-4.217-50.154,2.904c-1.452,9.341,0.349,19.181,5.089,27.372c1.51,2.626,3.334,5.123,4.252,8.016
				c1.15,3.636,0.767,7.552,0.848,11.362c0.047,1.859,0.244,3.834,1.441,5.263c0.523,0.627,1.197,1.104,1.731,1.719
				c0.895,1.022,1.301,2.451,1.15,3.799c-6.634,0.581-13.314,0.895-19.739,2.602c-12.396,3.276-22.829,11.397-33.262,18.856
				c-10.421,7.459-21.83,14.65-34.621,15.556l-0.012,0.232c-4.322-0.023-8.667-1.011-12.71-2.637
				c-5.681-2.3-10.793-5.797-15.568-9.655c-3.578-2.893-6.994-6.006-10.805-8.586c-9.004-6.111-19.832-9.015-30.613-10.433
				c-5.426-0.709-11.351-1.266-15.312-5.054c-0.511-0.488-0.976-1.057-1.348-1.673h0.058c-0.046-0.046-0.093-0.093-0.139-0.151
				c0,0-0.012,0-0.012-0.012c-0.256-0.418-0.43-0.871-0.569-1.313c-0.012-0.012-0.012-0.012-0.012-0.023
				c-0.209-1.371,0.383-3.032,1.348-4.136c1.487-1.685,3.59-2.812,4.728-4.752c1.359-2.312,1.011-5.193,1.406-7.842
				c0.569-3.764,2.672-7.11,3.869-10.735c1.87-5.693,1.452-11.85,1.011-17.833c-0.302-4.148-0.662-8.469-2.358-12.187
				c-14.22-4.984-30.09-5.274-44.427-0.604c-5.356,1.743-10.491,4.136-15.951,5.472c-7.877,1.905-16.091,1.545-24.177,1.173
				c-7.993-0.372-16.648-0.999-22.655-6.285c-3.753-3.299-5.96-8.016-9.364-11.688c-4.136-4.45-10.235-7.703-11.711-13.593
				c-1.29-5.182,1.568-10.363,3.241-15.44c2.01-6.111,2.765-13.349,7.935-17.183c4.008-2.986,9.492-2.87,14.429-2.149
				c7.47,1.08,14.755,3.253,22.248,4.206c7.482,0.941,15.452,0.546,22.016-3.172c3.16-1.801,5.855-4.287,8.83-6.367
				c8.109-5.716,18.321-8.539,25.095-15.789c4.752-5.089,7.621-12.164,13.709-15.51c3.95-2.173,8.632-2.405,13.105-2.974
				c8.62-1.092,17.043-3.625,24.839-7.459c2.823-1.383,5.739-2.986,8.876-2.846c3.718,0.174,7.064,2.777,10.746,2.684
				c-1.615,1.127-3.497,1.87-5.426,1.963c4.659,8.911,13.395,15.591,23.212,17.682c2.811,0.604,6.099,1.104,7.575,3.567
				c0.883,1.475,0.86,3.288,0.929,5.007c0.256,6.053,1.929,12.048,4.845,17.357c2.939-5.333,4.624-11.351,4.88-17.427
				c0.07-1.708,0.047-3.52,0.929-4.996c1.475-2.475,4.752-2.963,7.575-3.567c9.829-2.103,18.565-8.795,23.212-17.694
				c-1.94-0.093-3.811-0.825-5.426-1.952c3.683,0.081,7.029-2.509,10.735-2.684c3.148-0.151,6.065,1.452,8.888,2.846
				c7.784,3.834,16.218,6.367,24.839,7.459c4.473,0.569,9.155,0.79,13.105,2.974c6.088,3.346,8.957,10.421,13.697,15.498
				c6.785,7.261,16.985,10.084,25.106,15.789c2.974,2.091,5.669,4.577,8.83,6.367c6.564,3.729,14.534,4.124,22.016,3.172
				c7.494-0.941,14.778-3.114,22.237-4.206c4.949-0.72,10.433-0.825,14.441,2.149c5.17,3.834,5.914,11.083,7.935,17.194
				C463.048,245.727,465.895,250.897,464.605,256.079z"/>
			<path style="fill:#C66C6A;" d="M178.757,278.082c-6.878-7.838-7.929-18.959-13.499-27.575
				c-5.089-8.893-12.289-16.456-20.689-22.332c9.001,5.145,16.453,12.819,21.693,21.749
				C171.811,258.74,172.625,269.642,178.757,278.082L178.757,278.082z"/>
			<path style="fill:#C66C6A;" d="M146.124,254.963c2.292-0.188,4.356,1.309,6.182,2.474c1.812,1.212,3.875,1.931,5.894,3.04
				c4.032,2.275,6.505,6.136,9.823,9.186c-3.881-2.321-6.621-6.109-10.392-8.173c-1.865-1.056-4.038-1.88-5.84-3.31
				C150,256.861,148.392,255.262,146.124,254.963L146.124,254.963z"/>
			<path style="fill:#C66C6A;" d="M79.396,274.214c6.612-2.143,11.435-7.686,14.446-13.748c1.528-3.05,2.664-6.281,3.731-9.534
				c1.087-3.217,1.806-6.703,3.867-9.693c0.171-0.248,0.511-0.311,0.759-0.139c1.618,4.444,1.624,9.728,1.124,14.427
				c-0.581,4.701-2.009,9.298-4.242,13.473c-1.637,3.085-3.844,5.898-5.492,8.915c-0.198,0.455-0.105,0.879,0.283,1.133
				c0.386,0.259,0.951,0.343,1.477,0.309c4.634-0.761,7.596-5.171,10.033-8.864c-2.318,3.971-5.059,8.515-9.982,9.484
				c-0.626,0.048-1.288,0-1.896-0.372c-0.651-0.357-0.886-1.302-0.581-1.95c1.614-3.18,3.708-5.972,5.289-9.117
				c2.139-4.083,3.489-8.57,4.014-13.143c0.51-4.574,0.242-9.239-0.869-13.705l0.979,0.18c-1.919,2.708-2.686,6.117-3.807,9.376
				C95.457,260.837,89.855,271.434,79.396,274.214L79.396,274.214z"/>
			<path style="fill:#C66C6A;" d="M205.106,333.543c3.312-0.808,6.679,0.484,9.622,1.933c2.981,1.491,5.898,3.096,8.81,4.705
				c21.186,12.88,42.174,18.297,66.034,8.848c2.078-0.66,4.495-2.55,1.636-4.131c-2.182-1.273-4.78-1.454-6.8-3.274
				c-3.611-3.289-1.269-7.262,3.11-7.711c14.968-0.474,30.71-4.455,37.95-18.969c-5.534,12.655-19.772,18.637-32.863,19.513
				c-3.116,0.293-9.861-0.108-8.791,4.594c1.244,3.212,5.219,3.35,7.93,4.92c2.011,1.001,2.632,3.342,0.577,4.847
				c-15.701,7.976-35.216,7.769-51.363,1.148c-6.189-2.57-11.954-5.959-17.702-9.293c-2.868-1.683-5.739-3.362-8.668-4.924
				C211.691,334.24,208.431,332.863,205.106,333.543L205.106,333.543z"/>
			<path style="fill:#C66C6A;" d="M331.442,281.845c-0.692-4.174-1.24-8.441-0.54-12.669c0.674-4.251,2.41-8.2,4.099-12.044
				c2.61-5.74,4.867-11.611,6.604-17.671c0.616-2.011,1.133-4.05,1.663-6.093c-1.142,8.37-3.712,16.556-7.206,24.234
				c-1.718,3.838-3.431,7.67-4.285,11.734C330.906,273.398,331.23,277.644,331.442,281.845L331.442,281.845z"/>
			<path style="fill:#C66C6A;" d="M334.249,279.712c-0.156-4.8,2.269-9.254,4.534-13.32c2.344-4.091,4.954-8.041,8.01-11.643
				c-2.298,4.124-4.699,8.137-7,12.217C337.501,271.036,335.019,275.027,334.249,279.712L334.249,279.712z"/>
			<path style="fill:#C66C6A;" d="M409.003,242.248c6.728,2.424,0.146,15.347,0.199,20.571c-0.559,5.333,1.171,10.839,4.52,15.03
				c1.1,1.437,2.421,2.702,3.872,3.824c-1.6-0.904-3.029-2.107-4.305-3.453C399.694,263.318,417.641,247.241,409.003,242.248
				L409.003,242.248z"/>
			<path style="fill:#C66C6A;" d="M400.532,264.437c0.869,3.164,2.959,5.708,4.713,8.403c1.829,2.639,3.854,5.119,6.744,6.733
				c-3.286-0.76-5.837-3.387-7.698-6.071C402.539,270.768,400.498,267.81,400.532,264.437L400.532,264.437z"/>
		</g>
		<g>
			<path style="fill:#8B966C;" d="M440.521,359.977c-0.453,3.799-1.917,7.389-3.358,10.932c-2.358,5.751-4.717,11.525-7.923,16.846
				c-8.504,14.127-22.283,24.084-35.005,34.586c-9.05,7.47-17.74,15.405-26.012,23.747c0.163-1.336-0.023-2.777-0.383-4.078
				c-0.964-3.509-3.172-6.901-6.564-8.214c-1.812-0.709-3.799-0.767-5.716-1.08c-2.916-0.476-5.681-1.557-8.458-2.637
				c-1.812-2.207-3.148-4.856-4.775-7.238c-6.901-10.108-18.891-15.161-29.684-20.947c-2.347-1.255-4.694-2.602-6.576-4.485
				c-21.435,7.18-43.195,13.384-65.199,18.612c-10.491-5.309-20.645-11.304-30.776-17.299c-0.023-0.012-0.046-0.023-0.07-0.035
				c-0.174,0.058-0.337,0.093-0.511,0.139c-0.012,0-0.012,0.012-0.023,0c-10.514,2.045-19.123,9.492-28.313,15.115
				c-7.424,4.531-15.684,8.132-21.377,14.708c-0.651,0.767-1.266,1.557-1.859,2.37c-2.207,2.986-4.136,6.216-6.82,8.783
				l-0.093-0.081c-7.993-6.889-18.147-10.619-27.499-15.487c-9.561-4.972-18.438-11.258-26.314-18.612
				c-8.679-8.098-16.242-17.682-20.25-28.847c-4.008-11.165-4.136-24.037,1.383-34.54c4.217-8.04,11.571-14.278,20.029-17.613
				c8.446-3.323,17.915-3.787,26.779-1.801c16.079,3.625,29.788,14.917,45.972,17.833c0.372,0.616,0.836,1.185,1.348,1.673
				c3.962,3.787,9.887,4.345,15.312,5.054c10.781,1.417,21.609,4.322,30.613,10.433c3.811,2.579,7.226,5.693,10.805,8.586
				c4.775,3.857,9.887,7.354,15.568,9.655c4.043,1.626,8.388,2.614,12.71,2.637l0.012-0.232c12.791-0.906,24.2-8.098,34.621-15.556
				c10.433-7.459,20.866-15.58,33.262-18.856c6.425-1.708,13.105-2.021,19.739-2.602c2.312-0.209,4.612-0.453,6.913-0.79
				c12.338-1.836,24.014-6.645,35.562-11.351c5.472-2.231,11.107-4.496,17.02-4.531c6.274-0.035,12.315,2.463,17.694,5.704
				C432.761,336.8,441.962,347.836,440.521,359.977z"/>
			<path style="fill:#E09563;" d="M347.102,430.079c-2.916-1.115-5.832-2.242-8.911-2.661c-6.611-0.895-13.163,1.522-19.762,2.463
				c-6.483,0.918-13.163,0.372-19.413-1.568c-3.753-1.162-7.401-2.835-11.316-3.067c-4.45-0.267-8.748,1.359-12.884,3.055
				c-1.824-2.265-4.798-3.323-7.703-3.753c-2.974-0.441-6.018-0.372-8.957-1.022c-2.149-0.476-4.194-1.348-6.204-2.231
				c-3.741-1.661-7.435-3.427-11.083-5.274c22.004-5.228,43.764-11.432,65.199-18.612c1.882,1.882,4.229,3.23,6.576,4.485
				c10.793,5.786,22.783,10.839,29.684,20.947C343.954,425.223,345.29,427.872,347.102,430.079z"/>
			<path style="fill:#EDB48E;" d="M367.805,456.219c-0.349,0.407-0.732,0.802-1.162,1.127c0.058,0.802,0.035,1.615-0.197,2.382
				c-0.43,1.371-1.522,2.451-2.753,3.172c-1.243,0.72-2.637,1.115-4.008,1.51l-5.658,2.928c-1.557,4.392-6.889,6.401-11.525,5.948
				c-4.636-0.465-8.864-2.742-13.198-4.45c-22.69-8.981-49.155-2.73-71.984-11.351c-6.192-2.335-11.908-5.704-17.775-8.795
				l-0.012-0.012c-0.976-0.523-1.963-1.034-2.963-1.534c-23.294-11.688-49.701-15.568-75.83-16.091h-0.012
				c-0.929-0.012-1.859-0.023-2.788-0.035c0.592-0.813,1.208-1.603,1.859-2.37c5.693-6.576,13.953-10.177,21.377-14.708
				c9.19-5.623,17.798-13.07,28.313-15.115c0.012,0.012,0.012,0,0.023,0c0.186-0.035,0.383-0.07,0.581-0.105
				c10.131,5.995,20.285,11.99,30.776,17.299c3.648,1.847,7.342,3.613,11.083,5.274c2.01,0.883,4.055,1.754,6.204,2.231
				c2.939,0.651,5.983,0.581,8.957,1.022c2.904,0.43,5.879,1.487,7.703,3.753c4.136-1.696,8.435-3.323,12.884-3.055
				c3.915,0.232,7.563,1.905,11.316,3.067c6.25,1.94,12.931,2.486,19.413,1.568c6.599-0.941,13.151-3.358,19.762-2.463
				c3.079,0.418,5.995,1.545,8.911,2.661c2.777,1.08,5.542,2.161,8.458,2.637c1.917,0.314,3.904,0.372,5.716,1.08
				c3.392,1.313,5.6,4.705,6.564,8.214c0.36,1.301,0.546,2.742,0.383,4.078c-0.116,0.906-0.383,1.778-0.895,2.533
				c0.349,0.546,0.72,1.092,1.08,1.65c0.418,0.651,0.86,1.324,0.987,2.091C369.629,453.78,368.758,455.139,367.805,456.219z"/>
			<path style="fill:#E09563;" d="M239.533,448.679c-11.525-2.846-23.631-1.534-35.423-0.197
				c-9.248,1.046-18.577,2.114-27.348,5.205c-1.615,0.569-3.23,1.208-4.938,1.348c-1.708,0.128-3.567-0.337-4.67-1.65
				c-0.953-1.15-1.069-2.997-0.186-4.113c-0.802,0.558-1.603,1.162-2.486,1.615c-1.08,0.558-2.347,0.871-3.509,0.534
				c-1.499-0.441-2.556-2.045-2.382-3.59c-0.662,0.023-1.371-0.105-1.847-0.569c-0.43-0.43-0.581-1.115-0.476-1.719
				c0.116-0.616,0.441-1.162,0.836-1.638l-0.012-0.023c-0.012,0.012-0.035,0.012-0.046,0.023c-0.639,0.267-1.406,0.337-1.998-0.035
				c-0.895-0.558-0.999-1.812-0.871-2.858c0.488-4.09,3.009-7.865,6.552-9.957h0.012c26.128,0.523,52.536,4.403,75.83,16.091
				C237.569,447.645,238.557,448.157,239.533,448.679z"/>
			<path style="fill:#E09563;" d="M348.268,446.658c6.428-1.442,12.079,3.725,18.485,3.155
				C360.383,452.032,354.551,446.841,348.268,446.658L348.268,446.658z"/>
			<path style="fill:#E09563;" d="M350.073,455.623c4.183-1.338,8.808-0.346,12.988,0.497c1.379,0.266,2.781,0.466,4.159-0.08
				c-2.443,1.908-5.824,0.632-8.584,0.425C356.11,456.187,352.6,455.504,350.073,455.623L350.073,455.623z"/>
			<path style="fill:#E09563;" d="M349.258,461.464c4.278,0.432,7.914,2.634,12.293,2.006
				C357.582,465.76,352.859,463.412,349.258,461.464L349.258,461.464z"/>
			<path style="fill:#E09563;" d="M344.644,465.392c1.444-0.417,3.386,0.757,4.757,1.217c1.478,0.731,2.922,0.621,4.559,0.63
				c-2.357,1.626-5.014,0.723-7.206-0.685C346.025,466.202,345.46,465.537,344.644,465.392L344.644,465.392z"/>
			<path style="fill:#616642;" d="M209.338,397.056c4.656-0.882,8.809-3.932,10.954-8.063l0.355,0.422
				c-12.24,3.881-22.155-6.88-29.499-15.105c-5.175-5.695-11.376-10.297-18.482-13.285c-10.233-4.422-23.156-8.506-27.102-20.145
				c6.427,15.443,25.719,15.769,37.724,24.859c6.455,4.399,11.02,10.904,16.623,16.176c5.529,5.269,13.614,9.518,21.275,6.705
				c0,0-0.374,0.656-0.374,0.656C218.418,393.474,214.049,396.443,209.338,397.056L209.338,397.056z"/>
			<path style="fill:#616642;" d="M200.941,380.186c-2.519-1.247-3.915-3.932-5.183-6.303c-3.769-7.203-6.275-15.194-11.936-21.214
				c4.393,3.361,7.191,8.396,9.463,13.333c1.13,2.494,2.188,5.004,3.274,7.493C197.659,375.954,198.715,378.527,200.941,380.186
				L200.941,380.186z"/>
			<path style="fill:#616642;" d="M306.197,396.843c-3.445-1.699-6.083-4.996-7.027-8.775l0.241-0.029
				c9.662-1.16,18.037-6.636,25.472-12.6c7.509-5.99,14.517-12.874,23.155-17.528c4.276-2.326,8.662-4.315,12.759-6.837
				c4.124-2.481,8.119-5.203,12.25-7.735c8.138-5.06,17.304-9.612,27.111-9.407c-9.77,0.25-18.634,4.923-26.664,10.115
				c-4.047,2.62-8.01,5.394-12.164,7.908c-4.127,2.576-8.551,4.621-12.747,6.941c-8.427,4.624-15.487,11.314-23.073,17.331
				c-7.554,5.945-16.263,11.363-26.056,12.225c0,0,0.18-0.256,0.18-0.256C300.473,391.798,302.914,395.018,306.197,396.843
				L306.197,396.843z"/>
			<path style="fill:#616642;" d="M314.099,381.481c4.877-11.744,10.475-23.605,21.939-30.241c-1.215,1.013-2.422,2.023-3.55,3.117
				C324.108,361.729,319.69,372.068,314.099,381.481L314.099,381.481z"/>
			<path style="fill:#616642;" d="M292.591,370.402c-2.717,5.341-8.106,8.585-12.666,12.206c-4.765,3.494-9.651,6.838-14.727,9.877
				c-5.064,3.058-10.278,5.866-15.59,8.47c-2.658,1.301-5.355,2.52-8.077,3.679c-2.704,1.157-5.474,2.226-7.456,4.244l-0.331-0.894
				c6.954,0.649,13.991-0.147,20.84-1.636c6.859-1.517,13.575-3.676,20.281-5.836c-13.124,4.924-26.971,9.772-41.217,8.524
				c0,0-1.107-0.097-1.107-0.097l0.776-0.797c2.193-2.253,5.105-3.366,7.771-4.539c2.697-1.177,5.367-2.411,8.026-3.669
				c10.614-5.095,20.782-11.102,30.43-17.855C284.18,378.568,289.618,375.593,292.591,370.402L292.591,370.402z"/>
			<path style="fill:#616642;" d="M83.622,374.463c3.888,2.076,7.796,4.28,12.076,5.08c6.134,1.257,13.794-0.021,16.691-6.124
				c1.704-3.979,0.278-8.651,0.396-12.887c-0.018-2.217-0.004-4.433,0.152-6.641c0.184,4.427,0.545,8.805,1.108,13.195
				c0.269,2.19,0.278,4.599-0.69,6.765c-2.948,6.694-11.391,8.183-17.843,6.562C91.121,379.385,87.285,376.967,83.622,374.463
				L83.622,374.463z"/>
			<path style="fill:#616642;" d="M396.148,372.73c5.896,0.728,11.395-1.646,16.655-4.003c3.988-1.797,7.972-3.587,11.837-5.634
				c1.306-0.653,2.573-1.376,3.861-2.081c-1.141,0.924-2.356,1.748-3.573,2.572c-3.702,2.385-7.638,4.404-11.648,6.202
				C408.015,372.128,401.944,374.385,396.148,372.73L396.148,372.73z"/>
		</g>
		<g>
			<path style="fill:#EDB48E;" d="M294.973,176.044c-4.647,8.899-13.384,15.591-23.212,17.694c-2.823,0.604-6.099,1.092-7.575,3.567
				c-0.883,1.475-0.86,3.288-0.929,4.996c-0.256,6.076-1.94,12.094-4.88,17.427c-2.916-5.309-4.589-11.304-4.845-17.357
				c-0.07-1.719-0.046-3.532-0.929-5.007c-1.475-2.463-4.763-2.963-7.575-3.567c-9.817-2.091-18.554-8.772-23.212-17.682
				c1.929-0.093,3.811-0.836,5.426-1.963c0.918-0.627,1.754-1.383,2.475-2.231c2.196-2.579,3.439-5.855,4.229-9.155
				c0.023-0.093,0.046-0.197,0.07-0.29c0.987-4.241,1.313-8.655,0.976-12.989c1.894,2.463,4.101,4.67,6.564,6.552
				c4.821,3.66,10.595,6.053,16.613,6.82c6.169-0.72,12.129-3.125,17.067-6.889c2.475-1.882,4.682-4.09,6.564-6.564
				c-0.163,1.94-0.174,3.892-0.07,5.844c0.151,2.509,0.523,5.007,1.115,7.459c0.79,3.288,2.022,6.564,4.229,9.155
				c0.72,0.848,1.557,1.603,2.475,2.231C291.162,175.219,293.033,175.951,294.973,176.044z"/>
			<path style="fill:#E09563;" d="M281.729,155.248c-3.741,3.23-7.25,6.727-10.909,10.073c-3.195,2.916-6.552,5.751-10.503,7.517
				c-4.636,2.068-9.84,2.533-14.917,2.533c-2.196,0.012-4.647-0.174-6.146-1.777c-0.883-0.929-1.278-2.207-1.719-3.404
				c-0.976-2.661-2.242-5.193-3.52-7.714c0.987-4.241,1.313-8.655,0.976-12.989c1.894,2.463,4.101,4.67,6.564,6.552
				c4.821,3.66,10.595,6.053,16.613,6.82c6.169-0.72,12.129-3.125,17.067-6.889c2.475-1.882,4.682-4.09,6.564-6.564
				C281.636,151.344,281.624,153.296,281.729,155.248z"/>
			<path style="fill:#4C344A;" d="M300.18,117.66c-0.43,7.66-2.82,15.67-8.81,20.85c-6.49,5.6-15.21,5.7-22.91,2.7
				c-3.94-1.54-7.71-3.66-12.04-3.8c-4.15-0.12-8.17,1-12.19,1.86c-3.93,0.84-7.99,1.51-11.99,0.75c-3.58-0.67-6.91-2.59-9.38-5.26
				c-2.61-2.84-4.17-6.28-4.79-10.07c-0.72-4.38-0.32-8.82-0.7-13.22c-0.39-4.47-2.35-8.41-3.49-12.69
				c-1.05-3.97-0.98-8.07,0.44-11.94c1.34-3.65,3.81-6.47,6.57-9.13c1.41-1.36,2.85-2.71,4.09-4.21c0.79-1.83,1.41-3.75,2.32-5.53
				c1.77-3.47,4.67-6.35,8.15-8.09c7.1-3.56,15.6-2.2,23.35-3.9c3.11-0.67,6.19-1.85,9.37-1.62c3.25,0.23,6.22,1.92,8.82,3.89
				c2.37,1.8,4.56,3.87,7.04,5.52c2.93,1.07,5.73,2.36,7.97,4.65c2.7,2.76,3.94,6.51,4.17,10.31c0.26,4.28-1.34,8.73-0.31,12.95
				c0.51,2.08,1.8,3.85,2.54,5.84c0.73,1.99,0.98,4.13,1.19,6.23C300.04,108.36,300.44,113.02,300.18,117.66z"/>
			<path style="fill:#382537;" d="M258,130c-13-3-15-20-14-33c1-10-11-11-16-17c-1.558-2.337-1.906-5.275-2.454-7.88
				c-0.183,0.463-0.369,0.925-0.566,1.38c-1.24,1.5-2.68,2.85-4.09,4.21c-2.76,2.66-5.23,5.48-6.57,9.13
				c-1.42,3.87-1.49,7.97-0.44,11.94c1.14,4.28,3.1,8.22,3.49,12.69c0.38,4.4-0.02,8.84,0.7,13.22c0.62,3.79,2.18,7.23,4.79,10.07
				c2.47,2.67,5.8,4.59,9.38,5.26c4,0.76,8.06,0.09,11.99-0.75c4.02-0.86,8.04-1.98,12.19-1.86c4.33,0.14,8.1,2.26,12.04,3.8
				c7.7,3,16.42,2.9,22.91-2.7c4.542-3.928,7.011-9.484,8.128-15.28C288.234,117.103,271.105,133.276,258,130z"/>
			<path style="fill:#EDB48E;" d="M297.3,126.16c-1.7,3.84-4.91,7.08-8.84,8.43v0.01c-0.49,2.29-1.14,4.53-2.03,6.71
				c-1.17,2.89-2.73,5.62-4.63,8.09c-1.88,2.48-4.09,4.69-6.57,6.57c-3.26,2.48-7.08,4.46-11.08,6.39
				c-3.96,1.92-8.58,1.9-12.47-0.17c-3.63-1.94-7.02-3.8-10.13-6.15c-2.46-1.88-4.67-4.09-6.56-6.55c-1.89-2.49-3.47-5.22-4.65-8.13
				c-0.88-2.18-1.53-4.42-2.02-6.71c-3.94-1.36-7.13-4.6-8.83-8.42c-1.82-4.12-2.02-8.83-1.1-13.25c0.28-1.35,0.7-2.73,1.53-3.81
				v-0.01c0.23-0.31,0.5-0.6,0.82-0.85c0.99-0.79,2.5-1.02,3.62-0.52c-0.07-1,0.13-2.03,0.46-2.99c0.48-1.33,1.22-2.55,1.9-3.8
				c0.8-1.47,1.51-3.02,2.04-4.62c0.62-1.84,1-3.74,1.68-5.55c0.54-1.48,1.3-2.91,2.39-3.99c2.22,1.19,4.81,1.67,7.31,1.35
				c3.03-0.4,5.9-1.99,7.84-4.36c0.78-0.95,1.5-2.08,2.67-2.47c0.67-0.22,1.42-0.15,2.12,0.01c3.02,0.71,5.49,3.17,8.58,3.47
				c4.62,0.47,8.46-3.99,13.09-4.26c3.91-0.23,7.42,2.64,9.29,6.06c1.86,3.43,2.46,7.38,3.31,11.18c0.82,3.75,2.03,7.61,4.71,10.35
				c1.06-0.97,2.93-0.9,4.16-0.02l0.14,0.1c0.9,0.68,1.56,1.62,1.87,2.7C299.33,115.89,299.4,121.42,297.3,126.16z"/>
			<path style="fill:#E09563;" d="M219.646,115.328c-0.328-1.565,0.65-3.913,2.667-3.614c2.907,1.003,2.939,5.126,2.635,7.556
				c-0.593,4.007-2.421,8.604,0.973,11.817c-4.164-2.451-2.766-8.152-2.123-11.975c0.264-2.191,0.427-5.485-1.647-6.659
				C220.58,112.129,219.735,113.888,219.646,115.328L219.646,115.328z"/>
			<path style="fill:#E09563;" d="M226.585,112.102c1.731,6.914,2.276,14.106,1.587,21.201
				C227.254,126.227,226.737,119.236,226.585,112.102L226.585,112.102z"/>
			<path style="fill:#E09563;" d="M297.345,115.908c-0.089-1.438-0.934-3.201-2.504-2.874c-2.075,1.173-1.911,4.467-1.647,6.658
				c0.643,3.821,2.04,9.528-2.123,11.975c3.394-3.216,1.567-7.809,0.973-11.817c-0.305-2.43-0.272-6.554,2.635-7.557
				C296.694,111.997,297.673,114.341,297.345,115.908L297.345,115.908z"/>
			<path style="fill:#E09563;" d="M290.406,112.682c-0.153,7.134-0.669,14.124-1.587,21.201
				C288.131,126.789,288.675,119.597,290.406,112.682L290.406,112.682z"/>
			<path style="fill:#4C344A;" d="M234.568,107.98c4.962,0.956,9.811-0.009,14.645-1.335
				C246.223,110.848,238.083,112.022,234.568,107.98L234.568,107.98z"/>
			<path style="fill:#4C344A;" d="M250.256,99.726c-0.012,0.116-0.023,0.232-0.105,0.302c-0.093,0.081-0.232,0.07-0.36,0.058
				c-0.639-0.081-1.243-0.279-1.871-0.441c-2.672-0.685-5.542-0.616-8.191,0.186c-2.579,0.778-4.938,2.265-6.773,4.252
				c0.778-2.417,2.556-4.496,4.845-5.635c1.022-0.511,2.126-0.825,3.23-1.139c1.22-0.349,2.44-0.697,3.694-0.918
				c0.929-0.163,1.871-0.267,2.812-0.197c0.79,0.058,1.615,0.279,2.149,0.86C250.314,97.763,250.372,98.797,250.256,99.726z"/>
			<path style="fill:#E2A181;" d="M245.465,128.802c0.07,0.599,0.039,1.21-0.147,1.781c-0.452,1.398-1.87,2.341-3.33,2.535
				c-0.722,0.101-1.457,0.048-2.17-0.129l-0.019,0.083c-1.691-0.366-3.311-1.13-4.659-2.224c-1.154-0.946-2.116-2.123-2.985-3.349
				c-1.042-1.498-1.954-3.107-2.444-4.861c-0.489-1.754-0.537-3.683,0.104-5.378c0.65-1.71,2.043-3.172,3.794-3.673
				c1.643-0.462,3.464-0.049,4.88,0.897c1.416,0.946,2.443,2.382,3.124,3.957c0.591,1.374,0.911,2.869,1.481,4.262
				C243.904,124.744,245.236,126.616,245.465,128.802z"/>
			<path style="fill:#C6865C;" d="M269.91,135.17c-0.02,0.01-0.04,0.01-0.06,0.02c-0.05,0.02-0.15,0.05-0.29,0.09
				c-6.65,2.23-16.1,2.19-22.67-0.09c0,0,3.15-0.334,6.61-1.094c3.45-0.77,5.54-0.381,8.34-0.311
				C264.64,133.855,267.38,135.25,269.91,135.17z"/>
			<path style="fill:#E09563;" d="M253.249,140.803c3.374-0.688,6.92-0.323,10.307-0.633
				C261.349,143.552,256.043,143.328,253.249,140.803L253.249,140.803z"/>
			<path style="fill:#E2A181;" d="M264.081,125.548c-2.409,3.304-10.546,1.04-11.917-2.953c-0.862-4.6,3.636-10.228,4.781-17.803
				C257.816,99.04,265.82,119.538,264.081,125.548z"/>
			<path style="fill:#E09563;" d="M252.903,100.127c5.075-1.083,4.465,5.207,4.178,8.472c-0.537,4.639-2.174,8.924-3.797,13.195
				c-0.174,0.44-0.307,0.813-0.296,0.948c-0.012,0.079,0.041,0.222,0.314,0.512c1.631,1.654,4.241,2.97,6.629,3.324
				c1.265,0.214,2.592-0.313,3.916-0.395c1.241-0.032,2.95,0.183,3.373-1.303c-0.044,1.619-2.031,1.916-3.27,2.096
				c-1.34,0.338-2.596,1-4.089,0.95c-2.63-0.002-8.572-2.148-8.838-5.16c0.01-0.782,0.267-1.258,0.396-1.664l0.932-2.552
				c1.882-5.044,3.741-10.06,3.817-15.458C256.336,101.215,254.707,100.015,252.903,100.127L252.903,100.127z"/>
			<path style="fill:#4C344A;" d="M282.355,108.368c-4.962,0.956-9.811-0.009-14.645-1.335
				C270.7,111.236,278.84,112.411,282.355,108.368L282.355,108.368z"/>
			<path style="fill:#4C344A;" d="M266.667,100.114c0.012,0.116,0.023,0.232,0.105,0.302c0.093,0.081,0.232,0.07,0.36,0.058
				c0.639-0.081,1.243-0.279,1.871-0.441c2.672-0.685,5.542-0.616,8.191,0.186c2.579,0.778,4.938,2.265,6.773,4.252
				c-0.778-2.417-2.556-4.496-4.845-5.635c-1.022-0.511-2.126-0.825-3.23-1.139c-1.22-0.349-2.44-0.697-3.694-0.918
				c-0.929-0.163-1.871-0.267-2.812-0.197c-0.79,0.058-1.615,0.279-2.149,0.86C266.609,98.151,266.551,99.185,266.667,100.114z"/>
			<path style="fill:#E2A181;" d="M272.312,129.716c0.009,0.603,0.12,1.205,0.379,1.747c0.631,1.327,2.161,2.076,3.634,2.076
				c0.729,0.006,1.451-0.143,2.135-0.412l0.029,0.08c1.629-0.584,3.135-1.554,4.328-2.815c1.02-1.089,1.819-2.382,2.52-3.712
				c0.837-1.622,1.53-3.337,1.785-5.14c0.255-1.803,0.049-3.722-0.808-5.318c-0.868-1.61-2.442-2.876-4.243-3.144
				c-1.689-0.242-3.44,0.405-4.72,1.529c-1.28,1.123-2.109,2.682-2.578,4.333c-0.406,1.44-0.527,2.963-0.91,4.419
				C273.328,125.488,272.253,127.519,272.312,129.716z"/>
		</g>
		<g>
			<path style="fill:#EDB48E;" d="M114.455,217.043c-0.395,2.475-0.651,4.972-0.755,7.47c-0.023,0.662-0.047,1.359-0.36,1.94
				c-0.197,0.36-0.5,0.662-0.825,0.918c-0.767,0.604-1.685,0.988-2.521,1.499c-1.464,0.906-2.626,2.231-3.88,3.404
				c-2.567,2.393-5.658,4.299-9.085,5.065c-1.266,0.29-2.591,0.407-3.892,0.36c0.081,1.685-0.058,3.404-0.883,4.868
				c-0.871,1.568-2.405,2.626-3.811,3.741c-1.487,1.197-2.881,2.509-4.159,3.927c-2.021,2.242-3.846,4.821-6.587,6.088
				c-0.639,0.29-1.348,0.511-2.056,0.465c-1.173-0.093-2.149-0.906-3.044-1.673c-2.3-1.998-4.601-3.985-6.901-5.972
				c-1.499-1.301-3.032-2.649-3.834-4.45c-1.371-3.067-0.302-6.599,0.5-9.852c0.523-2.08,0.918-4.171,1.185-6.285
				c0.07-0.441,0.128-0.883,0.174-1.324c-0.5-0.72-0.906-1.499-1.197-2.335c-0.093-0.267-0.174-0.546-0.232-0.825
				c-0.441-1.847-0.314-3.799-0.197-5.693c0.139-2.033,0.279-4.066,0.407-6.099c0.093-1.359,0.186-2.707,0.511-4.031
				c0.627-2.533,2.103-4.787,3.787-6.773c1.115-1.313,2.393-2.579,3.962-3.265c0.116-0.256,0.232-0.511,0.36-0.755
				c0.186-0.372,0.407-0.732,0.639-1.069c1.162-1.661,2.986-2.939,5.007-3.137c1.348-0.128,2.719,0.221,4.078,0.383
				c0.093,0.012,0.174,0.023,0.267,0.035c0.86-0.836,1.754-1.615,2.788-2.207c1.534-0.86,3.416-1.278,5.065-0.685
				c0.744,0.267,1.394,0.709,2.022,1.185c0.743-0.558,1.545-0.999,2.463-1.115c1.499-0.197,2.963,0.511,4.264,1.29
				c1.022,0.616,2.01,1.301,2.951,2.033c0.256,0.186,0.511,0.395,0.802,0.488c2.219-1.092,5.077-1.104,6.959,0.488
				c0.616,0.511,1.092,1.162,1.487,1.847c1.708,2.963,1.859,6.529,1.987,9.945c0.07,2.103,0.139,4.194,0.209,6.285
				c0.07,0.023,0.128,0.058,0.197,0.081c0.221,0.093,0.441,0.186,0.662,0.302c0.639,0.337,1.22,0.79,1.464,1.452
				C114.664,215.684,114.56,216.381,114.455,217.043z"/>
			<path style="fill:#E09563;" d="M63.766,227.059c2.631,1.956,4.855,3.882,7.154,6.22
				C67.797,232.343,65.133,230.019,63.766,227.059L63.766,227.059z"/>
			<path style="fill:#E09563;" d="M81.36,236.358c4.005,0.233,7.592,1.732,11.577,1.849C89.251,239.739,84.731,238.1,81.36,236.358
				L81.36,236.358z"/>
			<path style="fill:#E09563;" d="M112.016,213.518c-3.805,1.071-7.485-1.621-11.317-1.248c-1.136,0.057-2.178-0.005-2.206,1.388
				c-0.438,5.101,3.744,9.461,8.45,10.841c-5.328-0.592-10.075-5.365-9.607-10.937c0.042-1.963,1.759-2.49,3.353-2.389
				C104.689,210.937,108.06,213.869,112.016,213.518L112.016,213.518z"/>
			<path style="fill:#E09563;" d="M98.962,196.284c-0.303,6.832-12.623,25.822,0.874,25.515c0.318-0.032,0.653-0.143,0.842-0.434
				c-0.133,0.322-0.475,0.516-0.808,0.607c-7.58,1.142-8.164-4.738-6.762-10.579C94.461,206.074,97.332,201.48,98.962,196.284
				L98.962,196.284z"/>
			<path style="fill:#E09563;" d="M88.907,198.008c0.152,5.352-2.617,10.502-2.488,15.804c-0.042,3.764,2.18,7.929,6.118,8.613
				c1.237,0.225,2.699-0.015,3.544-1.108c-0.295,0.615-0.878,1.086-1.528,1.339c-5.184,1.768-9.493-4.065-9.294-8.821
				C85.175,208.222,88.136,203.425,88.907,198.008L88.907,198.008z"/>
			<path style="fill:#E09563;" d="M89.825,221.413c-5.419,3.506-14.342,2.172-15.361-5.173c-0.146-3.281,1.323-6.077,2.219-9.099
				c0.885-2.552,2.125-6.194,3.125-8.669c-0.567,2.591-1.562,6.331-2.27,8.931c-0.626,2.85-2.083,5.827-1.918,8.731
				C76.595,222.766,84.572,223.776,89.825,221.413L89.825,221.413z"/>
			<path style="fill:#E09563;" d="M80.837,193.719c0.402,1.39,0.005,2.696-1.116,3.615C79.333,195.88,79.702,194.704,80.837,193.719
				L80.837,193.719z"/>
			<path style="fill:#E09563;" d="M71.122,197.458c0.266,2.877-0.949,5.66-1.822,8.322c-0.75,2.64-0.862,5.415-0.506,8.266
				c-1.257-2.608-1.401-5.742-0.611-8.581C69.116,202.723,70.443,200.301,71.122,197.458L71.122,197.458z"/>
			<path style="fill:#E09563;" d="M70.495,217.267c0.759,2.031,1.757,4.085,3.466,5.398c1.098,0.692,3.211,0.495,4.613,0.44
				c0.521-0.076,1.041-0.259,1.36-0.761c-0.061,0.61-0.642,1.077-1.196,1.307c-1.745,0.508-3.735,0.951-5.414-0.015
				C71.341,222.088,70.388,219.671,70.495,217.267L70.495,217.267z"/>
			<path style="fill:#E09563;" d="M109.099,206.703c-0.081,1.243-0.256,2.486-0.488,3.706c-0.093,0.43-0.221,0.953-0.441,1.394
				c-0.209,0.383-0.476,0.709-0.871,0.871c0.151-0.232,0.244-0.465,0.302-0.697c0.139-0.534,0.093-1.092,0.116-1.685
				c0.012-1.104,0.07-2.184,0.209-3.253c0.163-1.452,0.476-2.881,0.999-4.31C109.134,204.066,109.169,205.39,109.099,206.703z"/>
		</g>
		<g>
			<path style="fill:#EDB48E;" d="M402.33,216.98c0.395,2.475,0.651,4.972,0.755,7.47c0.023,0.662,0.047,1.359,0.36,1.94
				c0.197,0.36,0.5,0.662,0.825,0.918c0.767,0.604,1.685,0.988,2.521,1.499c1.464,0.906,2.626,2.231,3.88,3.404
				c2.568,2.393,5.658,4.299,9.085,5.065c1.266,0.29,2.591,0.407,3.892,0.36c-0.081,1.685,0.058,3.404,0.883,4.868
				c0.871,1.568,2.405,2.626,3.811,3.741c1.487,1.197,2.881,2.509,4.159,3.927c2.021,2.242,3.845,4.821,6.587,6.088
				c0.639,0.29,1.348,0.511,2.056,0.465c1.173-0.093,2.149-0.906,3.044-1.673c2.3-1.998,4.601-3.985,6.901-5.972
				c1.499-1.301,3.032-2.649,3.834-4.45c1.371-3.067,0.302-6.599-0.5-9.852c-0.627-2.509-1.08-5.042-1.359-7.61
				c0.5-0.72,0.906-1.499,1.197-2.335c0.709-2.08,0.569-4.333,0.43-6.518c-0.139-2.033-0.279-4.066-0.407-6.099
				c-0.093-1.359-0.186-2.707-0.511-4.031c-0.627-2.533-2.103-4.787-3.787-6.773c-1.115-1.313-2.393-2.579-3.962-3.265
				c-0.279-0.639-0.604-1.255-0.999-1.824c-1.162-1.661-2.986-2.939-5.007-3.137c-1.441-0.139-2.893,0.267-4.345,0.418
				c-0.86-0.836-1.754-1.615-2.788-2.207c-1.534-0.86-3.416-1.278-5.065-0.685c-0.744,0.267-1.394,0.709-2.022,1.185
				c-0.743-0.558-1.545-0.999-2.463-1.115c-1.499-0.197-2.963,0.511-4.264,1.29c-1.022,0.616-2.01,1.301-2.951,2.033
				c-0.256,0.186-0.511,0.395-0.802,0.488c-2.219-1.092-5.077-1.104-6.959,0.488c-0.616,0.511-1.092,1.162-1.487,1.847
				c-1.708,2.963-1.859,6.529-1.987,9.945c-0.07,2.103-0.139,4.194-0.209,6.285c-0.07,0.023-0.128,0.058-0.197,0.081
				c-0.883,0.36-1.801,0.871-2.126,1.754C402.121,215.621,402.226,216.318,402.33,216.98z"/>
			<path style="fill:#E09563;" d="M453.225,227.64c-1.367,2.959-4.03,5.283-7.154,6.22
				C448.369,231.522,450.594,229.596,453.225,227.64L453.225,227.64z"/>
			<path style="fill:#E09563;" d="M435.631,236.939c-3.369,1.741-7.891,3.381-11.577,1.849
				C428.038,238.67,431.626,237.172,435.631,236.939L435.631,236.939z"/>
			<path style="fill:#E09563;" d="M404.975,214.098c3.955,0.351,7.327-2.581,11.327-2.345c1.589-0.099,3.313,0.424,3.353,2.389
				c0.468,5.572-4.279,10.345-9.607,10.937c4.706-1.38,8.889-5.741,8.45-10.842c-0.027-1.393-1.07-1.331-2.206-1.388
				C412.46,212.477,408.78,215.169,404.975,214.098L404.975,214.098z"/>
			<path style="fill:#E09563;" d="M418.029,196.864c1.63,5.197,4.501,9.79,5.854,15.109c1.404,5.843,0.814,11.722-6.762,10.579
				c-0.333-0.09-0.675-0.285-0.808-0.607c0.189,0.291,0.524,0.403,0.842,0.435C430.648,222.682,418.34,203.718,418.029,196.864
				L418.029,196.864z"/>
			<path style="fill:#E09563;" d="M428.083,198.588c0.772,5.417,3.732,10.214,3.649,15.828c0.2,4.755-4.112,10.591-9.294,8.821
				c-0.651-0.253-1.233-0.725-1.528-1.339c0.844,1.092,2.306,1.333,3.544,1.108c3.938-0.685,6.16-4.848,6.118-8.613
				C430.7,209.09,427.932,203.94,428.083,198.588L428.083,198.588z"/>
			<path style="fill:#E09563;" d="M427.166,221.993c5.252,2.362,13.23,1.354,14.205-5.279c0.165-2.904-1.292-5.88-1.918-8.731
				c-0.713-2.604-1.7-6.324-2.27-8.931c0.996,2.459,2.246,6.122,3.125,8.669c0.897,3.022,2.365,5.817,2.22,9.099
				C441.509,224.164,432.584,225.5,427.166,221.993L427.166,221.993z"/>
			<path style="fill:#E09563;" d="M436.154,194.299c1.135,0.985,1.504,2.16,1.116,3.615
				C436.149,196.995,435.752,195.689,436.154,194.299L436.154,194.299z"/>
			<path style="fill:#E09563;" d="M445.869,198.038c0.678,2.843,2.005,5.265,2.939,8.006c0.79,2.839,0.646,5.973-0.611,8.581
				c0.356-2.851,0.244-5.626-0.506-8.266C446.819,203.699,445.603,200.915,445.869,198.038L445.869,198.038z"/>
			<path style="fill:#E09563;" d="M446.496,217.848c0.107,2.404-0.847,4.82-2.83,6.369c-1.679,0.966-3.668,0.523-5.414,0.015
				c-0.554-0.23-1.135-0.697-1.196-1.307c0.319,0.502,0.839,0.684,1.36,0.761c1.402,0.056,3.515,0.252,4.613-0.44
				C444.74,221.931,445.736,219.88,446.496,217.848L446.496,217.848z"/>
			<path style="fill:#E09563;" d="M409.699,213.256c-0.383-0.163-0.651-0.476-0.848-0.848c-0.244-0.453-0.372-0.976-0.465-1.417
				c-0.197-1.057-0.36-2.126-0.441-3.195c-0.128-1.487-0.116-2.986,0.116-4.484c0.511,1.417,0.825,2.823,0.999,4.252
				c0.139,1.092,0.209,2.196,0.221,3.311c0.012,0.5-0.012,0.976,0.058,1.429C409.386,212.628,409.49,212.942,409.699,213.256z"/>
		</g>
		<g>
			<path style="fill:#4C344A;" d="M408.552,209.838c-10.965-2.219-23.622-4.108-32.65,4.153c-3.853,3.526-5.818,8.559-5.319,13.769
				c0.109,1.139,0.329,2.274,0.644,3.384c-1.075,0.526-2.125,1.098-3.142,1.697c-5.192,3.056-10.199,6.363-15.595,9.066
				c-11.923,5.972-26.195,9.633-39.175,4.834c-0.752-0.278-1.577-0.142-1.988,0.623c-0.34,0.633-0.122,1.712,0.623,1.988
				c10.04,3.712,21.012,2.991,31.064-0.315c5.13-1.687,10.047-3.997,14.774-6.595c4.679-2.572,9.062-5.66,13.766-8.177
				c0.23-0.123,0.466-0.244,0.703-0.364c1.361,2.901,3.497,5.41,6.383,6.94c2.258,1.197,4.911,1.79,7.461,1.5
				c2.456-0.28,5.225-1.29,6.199-3.772c1.956-4.982-3.597-8.997-7.8-9.827c-3.626-0.716-7.193-0.074-10.558,1.212
				c-1.046-4.14-0.407-8.638,2.32-12.042c7.661-9.564,21.175-7.32,31.644-5.2C409.76,213.088,410.417,210.215,408.552,209.838z
				 M386.206,232.347c1.652,0.751,3.455,2.338,3.5,4.308c0.053,2.296-3.118,2.803-4.86,2.813c-4.41,0.025-8.078-2.927-9.917-6.759
				C378.563,231.313,382.601,230.708,386.206,232.347z"/>
			<g>
				<path style="fill:#382537;" d="M298.699,240.853l15.876,2.466c2.91,0.456,4.86,2.909,4.341,5.467l-0.538,2.735
					c-0.514,2.546-3.31,4.271-6.22,3.815l-15.876-2.466c-2.915-0.446-4.86-2.909-4.359-5.461l0.55-2.73
					C292.993,242.122,295.784,240.407,298.699,240.853z"/>
				<path style="fill:#4C344A;" d="M281.785,227.801l13.244,2.057c10.085,1.567,16.869,10.109,15.087,18.973
					c-1.782,8.864-11.484,14.83-21.569,13.263l-13.21-2.225l0,0c2.916,0.453,6.722-6.366,8.501-15.215
					C285.617,235.806,284.701,228.254,281.785,227.801z"/>
				<path style="fill:#382537;" d="M281.785,227.801c2.916,0.453,3.832,8.005,2.053,16.854c-1.779,8.849-5.585,15.668-8.501,15.215
					c-2.916-0.453-3.832-8.005-2.053-16.854C275.063,234.167,278.869,227.348,281.785,227.801z"/>
				<path style="fill:#BCB8BC;" d="M277.576,246.168c0.725,0.113,0.953,1.99,0.51,4.19c-0.442,2.2-1.388,3.895-2.113,3.782
					c-0.725-0.113-0.953-1.99-0.51-4.19C275.906,247.751,276.852,246.055,277.576,246.168z"/>
				<path style="fill:#BCB8BC;" d="M280.7,233.117c0.725,0.113,0.953,1.99,0.51,4.19c-0.442,2.2-1.388,3.895-2.113,3.782
					c-0.725-0.113-0.953-1.99-0.51-4.19C279.029,234.7,279.975,233.004,280.7,233.117z"/>
			</g>
			<path style="fill:#4C344A;" d="M66.997,212.232c-9.528,0.55-19.048-3.04-25.976-9.584c-7.934-7.494-11.145-18.306-11.531-28.968
				c-0.254-7.027,0.61-14.019,1.704-20.946c0.294-1.863-2.577-2.527-2.874-0.647c-1.953,12.367-3.192,25.386,1.005,37.451
				c3.517,10.112,10.927,18.317,20.795,22.567c5.348,2.303,11.16,3.407,16.981,3.071C68.993,215.066,68.895,212.122,66.997,212.232z
				"/>
			<path style="fill:#4C344A;" d="M204.69,246.365c-4.817,3.371-10.791,4.765-16.589,3.66c-5.486-1.046-10.375-3.915-15.112-6.742
				c-5.151-3.074-10.309-6.098-16.088-7.85c-3.864-1.172-7.928-1.717-11.941-1.408c-0.749-4.069-2.553-8.007-4.65-11.471
				c-6.541-10.81-18.785-18.266-31.647-15.407c-1.855,0.412-0.995,3.231,0.846,2.822c10.118-2.249,20.217,3.028,26.215,11.045
				c2.928,3.914,5.338,8.558,6.29,13.391c-0.628,0.119-1.255,0.254-1.876,0.421c-2.598,0.698-5.13,1.829-7.322,3.394
				c-2.168,1.548-4.379,3.578-5.255,6.165c-0.844,2.495,0.024,5.086,2.151,6.621c2.211,1.595,5.11,1.586,7.563,0.561
				c4.897-2.046,7.649-7.195,8.01-12.312c0.055-0.775,0.057-1.55,0.019-2.324c10.856-0.795,19.994,5.356,28.978,10.529
				c4.822,2.777,9.969,5.247,15.58,5.773c5.769,0.541,11.625-1.038,16.369-4.358C207.783,247.791,206.245,245.277,204.69,246.365z
				 M137.74,247.986c-1.864,1.276-4.638,2.091-6.548,0.457c-2.065-1.767-0.509-4.287,0.991-5.831
				c2.714-2.796,6.374-4.508,10.183-5.272C142.487,241.38,141.183,245.627,137.74,247.986z"/>
			<g>
				<path style="fill:#382537;" d="M218.841,252.609l-13.989,2.334c-2.551,0.425-4.998-1.316-5.422-3.879l-0.456-2.734
					c-0.425-2.551,1.316-4.998,3.867-5.423l13.989-2.334c2.552-0.437,4.998,1.316,5.423,3.867l0.456,2.734
					C223.133,249.737,221.393,252.172,218.841,252.609z"/>
				<path style="fill:#4C344A;" d="M237.205,259.947l-11.659,1.948c-8.878,1.483-17.352-4.578-18.835-13.456
					c-1.483-8.878,4.563-17.349,13.441-18.833l11.687-1.78l0,0c-2.567,0.429-3.443,7.973-1.962,16.836
					C231.357,253.526,234.638,260.376,237.205,259.947z"/>
				<path style="fill:#382537;" d="M237.205,259.947c-2.567,0.429-5.848-6.421-7.328-15.284c-1.481-8.863-0.605-16.407,1.962-16.836
					c2.567-0.429,5.848,6.421,7.329,15.284C240.648,251.974,239.772,259.518,237.205,259.947z"/>
				<path style="fill:#BCB8BC;" d="M250.252,249.744l-14.544,2.43c-3.432-1.539-1.959-4.447,0.671-4.886l13.096-2.188
					c1.666-0.278,3.214,0.53,3.429,1.814c0.107,0.642-0.147,1.284-0.627,1.796C251.799,249.221,251.078,249.606,250.252,249.744z"/>
				<path style="fill:#BCB8BC;" d="M250.185,236.179c-0.48,0.512-1.199,0.908-2.024,1.046l-13.096,2.188
					c-2.637,0.441-4.986-1.873-2.2-4.418l14.35-2.397c1.431-0.239,2.893,0.232,3.412,1.236
					C251.047,234.645,250.803,235.519,250.185,236.179z"/>
			</g>
			<path style="fill:#4C344A;" d="M484.359,197.092c-8.575,10.515-22.508,13.276-35.145,15.674
				c-1.865,0.354-0.999,3.172,0.846,2.822c13.154-2.496,27.539-5.557,36.453-16.488C487.705,197.64,485.56,195.62,484.359,197.092z"
				/>
		</g>
		<g>
			<path style="fill:#F5E9D8;" d="M294.558,285.798c0,7.64-6.25,13.9-13.9,13.9h-44.24c-7.65,0-13.9-6.26-13.9-13.9
				c0-3.82,1.56-7.3,4.08-9.82c2.52-2.52,6-4.08,9.82-4.08h44.24C288.308,271.898,294.558,278.148,294.558,285.798z"/>
			<path style="fill:#C66C6A;" d="M281.078,297.122h-45.342c-6.228,0-11.324-5.096-11.324-11.324v0
				c0-6.228,5.096-11.324,11.324-11.324h45.342c6.228,0,11.324,5.096,11.324,11.324v0
				C292.402,292.026,287.306,297.122,281.078,297.122z"/>
			<circle style="fill:#F5E9D8;" cx="235.538" cy="285.798" r="9.786"/>
		</g>
	</g>
</g>
</svg>
